<svg viewBox="0 0 94 139" xmlns="http://www.w3.org/2000/svg" xml:space="preserve" style="fill-rule:evenodd;clip-rule:evenodd;stroke-linejoin:round;stroke-miterlimit:2"><g transform="matrix(.79613 0 0 .7969 -4.871 0)"><path style="fill:none" d="M6.119 0h117.959v174.413H6.119z"/><clipPath id="a"><path d="M6.119 0h117.959v174.413H6.119z"/></clipPath><g clip-path="url(#a)"><path style="fill:none" d="M-36.332.002H96.442v125.475H-36.332z" transform="matrix(1.57553 0 0 1.74427 25.618 -22.487)"/><path d="M1.95 111.2a6.875 6.875 0 0 0 .14 9.73 6.875 6.875 0 0 0 9.73-.14L64.94 66l-4.93-4.79 4.95 4.8c2.65-2.74 2.59-7.11-.15-9.76-.08-.08-.16-.15-.24-.22L11.81 2.09c-2.65-2.73-7-2.79-9.73-.14-2.72 2.65-2.78 7-.13 9.73l48.46 49.55L1.95 111.2Z" style="fill:#fff;fill-rule:nonzero;stroke:#fff;stroke-width:11px" transform="matrix(1.25608 0 0 1.25485 30.344 10.217)"/></g></g></svg>