<?xml version="1.0" encoding="UTF-8" standalone="no"?>
<!DOCTYPE svg PUBLIC "-//W3C//DTD SVG 1.1//EN" "http://www.w3.org/Graphics/SVG/1.1/DTD/svg11.dtd">
<svg width="100%" height="100%" viewBox="0 0 500 500" version="1.1" xmlns="http://www.w3.org/2000/svg" xmlns:xlink="http://www.w3.org/1999/xlink" xml:space="preserve" xmlns:serif="http://www.serif.com/" style="fill-rule:evenodd;clip-rule:evenodd;stroke-linejoin:round;stroke-miterlimit:2;">
    <g transform="matrix(0.408144,0,0,0.408144,-63.4549,-110.4)">
        <g transform="matrix(1.08996,0,0,1.08996,-82.1113,-179.304)">
            <text x="490.552px" y="1229.05px" style="font-family:'GillSans-Light', 'Gill Sans', sans-serif;font-weight:300;font-size:48px;">Reformowany Kościół Katolicki</text>
            <text x="696.31px" y="1277.05px" style="font-family:'GillSans-Light', 'Gill Sans', sans-serif;font-weight:300;font-size:48px;">w Polsce</text>
        </g>
        <g transform="matrix(1,0,0,1,-50.9486,49.4282)">
            <text x="570.915px" y="974.581px" style="font-family:'GillSans-SemiBold', 'Gill Sans', sans-serif;font-weight:600;font-size:144px;">Oﬁcjum</text>
        </g>
        <g transform="matrix(1.6194,0,0,1.6194,769.576,676.202)">
            <g transform="matrix(1,0,0,1,-142,-113.5)">
                <g id="Layer-1" serif:id="Layer 1">
                    <g transform="matrix(1,0,0,1,0,75.524)">
                        <path d="M233.751,69.303C230.332,71.812 227.292,74.082 224.916,75.727C226.876,77.076 230.11,79.359 233.751,81.945L233.751,69.303Z" style="fill:rgb(230,119,23);"/>
                    </g>
                    <g transform="matrix(1,0,0,1,0,88.802)">
                        <path d="M109.25,28.199C93.536,28.199 70.15,32.026 48.488,46.28L48.488,90.069C64.218,102.077 81.751,109.771 104.625,109.261C139.486,109.261 189.163,76.694 207.938,63.949C194.992,54.199 160.125,28.199 109.25,28.199" style="fill:rgb(230,119,23);"/>
                    </g>
                    <g transform="matrix(1,0,0,1,0,-59.067)">
                        <path d="M124.208,107.267C150.833,109.401 158.541,112.526 168.958,116.734L168.958,127.192C161.708,124.484 141,116.901 124.875,116.443C124.625,119.818 122.875,151.227 116.409,166.101C157.95,171.018 193.375,186.735 218.583,205.026C221.998,202.544 227.299,198.143 233.751,193.618L233.751,83.648C233.751,82.089 232.476,80.813 230.916,80.813L119.513,80.813C123.165,92.815 124.208,104.118 124.208,107.267" style="fill:rgb(135,187,46);"/>
                    </g>
                    <g transform="matrix(1,0,0,1,0,-83.812)">
                        <path d="M105.25,190.23C114.24,171.627 116.167,152.313 115.417,140.479C98.32,140.102 87.583,143.813 71.583,148.979L72,137.013C84.249,134.638 104.185,131.465 115.167,131.68C115.167,120.686 111.98,111.584 109.175,105.558L51.322,105.558C49.763,105.558 48.488,106.834 48.488,108.393L48.488,205.026C68.761,192.777 89.075,190.23 105.25,190.23" style="fill:rgb(248,195,5);"/>
                    </g>
                    <g transform="matrix(1,0,0,1,0,133.612)">
                        <path d="M216.45,24.506C197.818,41.27 165.451,58.889 137.986,68.654L230.916,68.654C232.476,68.654 233.751,67.379 233.751,65.819L233.751,37.172C227.4,32.51 216.45,24.506 216.45,24.506" style="fill:rgb(230,119,23);"/>
                    </g>
                    <g transform="matrix(0,1,1,0,28.933,138.448)">
                        <path d="M53.439,19.555L60.983,19.555C62.543,19.555 63.818,20.83 63.818,22.389L63.818,39.836C60.869,32.595 57.286,25.793 53.439,19.555" style="fill:rgb(230,119,23);"/>
                    </g>
                    <g transform="matrix(1,0,0,1,0,-0.55)">
                        <path d="M104.625,198.613C69.675,199.392 47.191,181.024 24.563,157.363C50.813,124.926 87.429,117.551 109.25,117.551C160.125,117.551 194.992,143.551 207.938,153.301C189.163,166.046 139.486,198.613 104.625,198.613M273.232,126.884C273.232,126.884 267.708,122.593 264.833,120.426C245.292,124.009 226.667,140.634 218.583,146.509C193.375,128.218 157.95,112.501 116.409,107.584C122.875,92.71 124.625,61.301 124.875,57.926C141,58.384 161.708,65.967 168.958,68.675L168.958,58.217C158.541,54.009 150.833,50.884 124.208,48.75C124.208,45.134 122.833,30.759 117.708,16.925C115.101,16.759 105.917,16.092 105.917,16.092C108.417,20.422 115.167,32.418 115.167,48.418C104.185,48.203 84.249,51.376 72,53.751L71.583,65.717C87.583,60.551 98.32,56.84 115.417,57.217C116.167,69.051 114.24,88.365 105.25,106.968C78.583,106.968 40.667,113.884 10.232,159.801C17.333,169.051 55.851,208.559 102.313,210.474C128.925,211.23 188.333,183.967 216.45,158.668C216.45,158.668 235.958,172.926 238,174.468C242.124,171.995 246.001,172.119 255.166,173.334C255.166,173.334 231.918,156.623 224.916,151.801C236.035,144.103 261.625,122.759 273.232,126.884"/>
                    </g>
                </g>
            </g>
        </g>
    </g>
</svg>
