<svg viewBox="0 0 284 227" xmlns="http://www.w3.org/2000/svg" fill-rule="evenodd" clip-rule="evenodd" stroke-linejoin="round" stroke-miterlimit="2"><path d="M233.751 144.827c-3.419 2.509-6.459 4.779-8.835 6.424 1.96 1.349 5.194 3.632 8.835 6.218v-12.642zM109.25 117.001c-15.714 0-39.1 3.827-60.762 18.081v43.789c15.73 12.008 33.263 19.702 56.137 19.192 34.861 0 84.538-32.567 103.313-45.312-12.946-9.75-47.813-35.75-98.688-35.75" fill="#e67717"/><path d="M124.208 48.2c26.625 2.134 34.333 5.259 44.75 9.467v10.458c-7.25-2.708-27.958-10.291-44.083-10.749-.25 3.375-2 34.784-8.466 49.658 41.541 4.917 76.966 20.634 102.174 38.925 3.415-2.482 8.716-6.883 15.168-11.408V24.581a2.843 2.843 0 00-2.835-2.835H119.513c3.652 12.002 4.695 23.305 4.695 26.454" fill="#87bb2e"/><path d="M105.25 106.418c8.99-18.603 10.917-37.917 10.167-49.751-17.097-.377-27.834 3.334-43.834 8.5L72 53.201c12.249-2.375 32.185-5.548 43.167-5.333 0-10.994-3.187-20.096-5.992-26.122H51.322a2.843 2.843 0 00-2.834 2.835v96.633c20.273-12.249 40.587-14.796 56.762-14.796" fill="#f8c305"/><path d="M216.45 158.118c-18.632 16.764-50.999 34.383-78.464 44.148h92.93a2.842 2.842 0 002.835-2.835v-28.647c-6.351-4.662-17.301-12.666-17.301-12.666M48.488 191.887v7.544a2.842 2.842 0 002.834 2.835h17.447c-7.241-2.949-14.043-6.532-20.281-10.379" fill="#e67717"/><path d="M104.625 198.063c-34.95.779-57.434-17.589-80.062-41.25 26.25-32.437 62.866-39.812 84.687-39.812 50.875 0 85.742 26 98.688 35.75-18.775 12.745-68.452 45.312-103.313 45.312m168.607-71.729s-5.524-4.291-8.399-6.458c-19.541 3.583-38.166 20.208-46.25 26.083-25.208-18.291-60.633-34.008-102.174-38.925 6.466-14.874 8.216-46.283 8.466-49.658 16.125.458 36.833 8.041 44.083 10.749V57.667c-10.417-4.208-18.125-7.333-44.75-9.467 0-3.616-1.375-17.991-6.5-31.825-2.607-.166-11.791-.833-11.791-.833 2.5 4.33 9.25 16.326 9.25 32.326-10.982-.215-30.918 2.958-43.167 5.333l-.417 11.966c16-5.166 26.737-8.877 43.834-8.5.75 11.834-1.177 31.148-10.167 49.751-26.667 0-64.583 6.916-95.018 52.833 7.101 9.25 45.619 48.758 92.081 50.673 26.612.756 86.02-26.507 114.137-51.806 0 0 19.508 14.258 21.55 15.8 4.124-2.473 8.001-2.349 17.166-1.134 0 0-23.248-16.711-30.25-21.533 11.119-7.698 36.709-29.042 48.316-24.917"/></svg>