<?xml version="1.0" standalone="no"?>
<!DOCTYPE svg PUBLIC "-//W3C//DTD SVG 20010904//EN"
 "http://www.w3.org/TR/2001/REC-SVG-20010904/DTD/svg10.dtd">
<svg version="1.0" xmlns="http://www.w3.org/2000/svg"
 width="500.000000pt" height="500.000000pt" viewBox="0 0 500.000000 500.000000"
 preserveAspectRatio="xMidYMid meet">
<metadata>
Created by potrace 1.14, written by Peter Selinger 2001-2017
</metadata>
<g transform="translate(0.000000,500.000000) scale(0.100000,-0.100000)"
fill="#000000" stroke="none">
<path d="M1901 4252 c61 -137 97 -269 106 -383 l6 -86 -33 -6 c-18 -4 -58 -7
-89 -7 -111 0 -640 -76 -659 -94 -7 -8 -17 -216 -10 -216 3 0 38 11 79 26 231
79 454 124 618 124 l104 0 -6 -142 c-11 -250 -65 -485 -160 -699 l-25 -56
-123 -7 c-637 -36 -1119 -302 -1517 -835 l-92 -123 59 -67 c263 -294 721 -617
1031 -727 403 -143 651 -160 985 -69 139 38 330 101 440 146 109 44 473 217
545 259 25 15 83 48 130 75 47 26 148 90 225 141 124 83 170 117 309 228 l36
28 73 -53 c39 -29 127 -92 194 -141 l122 -88 38 16 c38 17 204 22 246 8 38
-12 5 15 -225 179 -128 92 -246 177 -261 189 l-28 23 128 95 c338 249 541 359
675 363 32 1 58 2 58 3 0 1 -32 26 -71 54 l-70 53 -54 -12 c-171 -38 -401
-165 -669 -369 l-119 -91 -101 68 c-469 313 -1005 520 -1600 616 -81 13 -150
26 -152 28 -2 2 7 36 21 74 47 135 89 387 116 686 14 160 -4 147 168 121 132
-19 325 -69 501 -128 74 -25 136 -46 138 -46 1 0 1 43 0 97 l-3 96 -65 25
c-85 32 -209 68 -300 87 -58 12 -392 55 -428 55 -5 0 -14 46 -21 103 -16 130
-54 308 -86 399 -14 39 -26 73 -28 74 -2 2 -49 7 -105 10 l-101 7 50 -111z
m443 -1776 c448 -78 836 -244 1249 -533 l108 -77 -143 -93 c-475 -311 -953
-553 -1288 -653 -187 -55 -308 -73 -490 -73 -464 0 -821 166 -1257 588 -84 81
-153 153 -153 160 0 20 224 242 310 307 224 169 484 290 760 353 202 47 277
54 525 50 193 -2 254 -7 379 -29z"/>
</g>
</svg>
